<?xml version="1.0" encoding="UTF-8" standalone="no"?>
<!-- Created with Inkscape (http://www.inkscape.org/) -->

<svg
   xmlns:dc="http://purl.org/dc/elements/1.1/"
   xmlns:cc="http://creativecommons.org/ns#"
   xmlns:rdf="http://www.w3.org/1999/02/22-rdf-syntax-ns#"
   xmlns:svg="http://www.w3.org/2000/svg"
   xmlns="http://www.w3.org/2000/svg"
   xmlns:sodipodi="http://sodipodi.sourceforge.net/DTD/sodipodi-0.dtd"
   xmlns:inkscape="http://www.inkscape.org/namespaces/inkscape"
   version="1.1"
   width="236"
   height="80"
   id="svg3470"
   inkscape:version="0.48.4 r9939"
   sodipodi:docname="index_logo.svg"
   inkscape:export-filename="/home/jnerlich/Desktop/index_logo.png"
   inkscape:export-xdpi="90"
   inkscape:export-ydpi="90">
  <sodipodi:namedview
     pagecolor="#ffffff"
     bordercolor="#666666"
     borderopacity="1"
     objecttolerance="10"
     gridtolerance="10"
     guidetolerance="10"
     inkscape:pageopacity="0"
     inkscape:pageshadow="2"
     inkscape:window-width="1535"
     inkscape:window-height="876"
     id="namedview10"
     showgrid="false"
     inkscape:zoom="4.6344381"
     inkscape:cx="113.2486"
     inkscape:cy="22.719163"
     inkscape:window-x="65"
     inkscape:window-y="24"
     inkscape:window-maximized="1"
     inkscape:current-layer="svg3470" />
  <defs
     id="defs3" />
  <metadata
     id="metadata4">
    <rdf:RDF>
      <cc:Work
         rdf:about="">
        <dc:format>image/svg+xml</dc:format>
        <dc:type
           rdf:resource="http://purl.org/dc/dcmitype/StillImage" />
        <dc:title />
      </cc:Work>
    </rdf:RDF>
  </metadata>
  <path
     inkscape:connector-curvature="0"
     style="font-size:74.47100829999999405px;font-style:normal;font-variant:normal;font-weight:normal;font-stretch:normal;text-align:start;line-height:125%;letter-spacing:2.37390566000000014;word-spacing:0px;writing-mode:lr-tb;text-anchor:start;fill:#f88017;fill-opacity:1;stroke:none;font-family:Fh_Lentil;-inkscape-font-specification:Fh_Lentil"
     id="path4007"
     d="m 227.65084,52.817147 c -1.05499,8e-6 -2.30807,0.04036 -3.78502,0.110665 -1.47695,0.07033 -2.89141,0.308467 -4.22767,0.730444 -1.33632,0.386827 -2.4814,1.015342 -3.43087,1.859313 -0.9143,0.84397 -1.37235,2.007278 -1.37235,3.51939 0,0.632979 0.13011,1.270597 0.3763,1.903578 0.24614,0.597817 0.6144,1.145639 1.10673,1.63796 0.52746,0.457144 1.16509,0.834505 1.90356,1.150996 0.77363,0.281325 1.65848,0.442692 2.67828,0.442692 1.30113,0 2.47743,-0.309701 3.49725,-0.907529 1.01979,-0.632979 1.86429,-1.418915 2.56764,-2.368395 0.73844,-0.984616 1.31751,-2.08028 1.70436,-3.275922 0.38678,-1.195606 0.57545,-2.381045 0.57549,-3.541526 l 0,-1.261664 -1.5937,0 z M 145.68651,41.683454 c -2.74292,2.4e-5 -4.8939,0.947345 -6.44116,2.811088 -1.54729,1.863799 -2.32413,4.450667 -2.32413,7.791373 0,1.687945 0.21991,3.232535 0.6419,4.603986 0.45714,1.336298 1.09477,2.490503 1.90357,3.475128 0.84397,0.949483 1.8186,1.685979 2.9439,2.213466 1.12529,0.527483 2.39142,0.796843 3.76288,0.796843 1.12529,0 2.1897,-0.179571 3.20951,-0.531236 1.01979,-0.386813 1.89552,-0.993196 2.63401,-1.83717 0.77363,-0.879142 1.37999,-2.024225 1.83717,-3.430864 0.45713,-1.406604 0.68616,-3.148977 0.68617,-5.223751 -1e-5,-2.039585 -0.22904,-3.741618 -0.68617,-5.113086 -0.45718,-1.371435 -1.07265,-2.467095 -1.88143,-3.275916 -0.77366,-0.808783 -1.72099,-1.396959 -2.81111,-1.748634 -1.09015,-0.351628 -2.24432,-0.531203 -3.47511,-0.531227 z m -29.90381,-0.04435 c -1.47696,2.4e-5 -2.89142,0.278501 -4.22769,0.841115 -1.30114,0.562675 -2.44625,1.33951 -3.43087,2.324129 -0.98464,0.949491 -1.76148,2.094593 -2.32414,3.430854 -0.56265,1.336322 -0.84112,2.800213 -0.8411,4.382655 -2e-5,1.617622 0.27845,3.099737 0.8411,4.471182 0.56266,1.371458 1.3395,2.566013 2.32414,3.585795 0.98462,0.984637 2.12973,1.77059 3.43087,2.368408 1.33627,0.562647 2.75073,0.863241 4.22769,0.863241 1.47694,0 2.86017,-0.300594 4.1613,-0.863241 1.3011,-0.597818 2.4462,-1.383771 3.43086,-2.368408 0.98461,-1.019782 1.76147,-2.214337 2.32413,-3.585795 0.56262,-1.371445 0.8411,-2.85356 0.84111,-4.471182 -10e-6,-1.582446 -0.27849,-3.046337 -0.84111,-4.382659 -0.56266,-1.336261 -1.33952,-2.481363 -2.32413,-3.430854 -0.98466,-0.984619 -2.12976,-1.761454 -3.43086,-2.324129 -1.30113,-0.562614 -2.68436,-0.841091 -4.1613,-0.841115 z m 60.20602,-0.265629 c -2.32092,3e-5 -4.3821,0.727444 -6.17554,2.169193 -1.75827,1.441807 -2.87213,3.561544 -3.36445,6.374748 l 17.39778,0 c -0.0703,-1.441759 -0.33971,-2.685752 -0.79685,-3.740729 -0.42201,-1.090107 -0.98805,-1.997092 -1.72651,-2.700431 -0.70332,-0.703269 -1.5205,-1.219865 -2.4348,-1.571544 -0.91431,-0.351643 -1.87982,-0.531207 -2.89963,-0.531237 z m -101.885394,-2.5235 6.020603,0 8.743151,23.683995 7.348677,-19.522684 c 0.140621,-0.316467 0.199167,-0.64437 0.199206,-0.996059 -2.5e-5,-0.738442 -0.507502,-1.106698 -1.52728,-1.106729 -0.38684,3.1e-5 -0.70565,3.1e-5 -0.951787,0 -0.246178,0 -0.484304,0.0091 -0.730441,0.04435 l 0.265609,-2.102794 8.278316,0 -10.868058,27.801029 -4.072767,0 -9.849874,-25.167001 c -0.140642,-0.386789 -0.62995,-0.575479 -1.438748,-0.575503 -0.351655,2.4e-5 -0.639235,2.4e-5 -0.885388,0 -0.281324,0 -0.550689,0.0091 -0.796843,0.04435 l 0.265622,-2.102787 z M 222.60424,38.208306 c 1.79342,3.6e-5 3.40565,0.269394 4.84744,0.796841 l 0.0444,0 c 1.05493,0.386856 1.92157,0.894326 2.58973,1.527288 0.70332,0.632996 1.26022,1.369509 1.68222,2.21346 0.42198,0.843999 0.70046,1.769178 0.84113,2.788956 0.17568,0.984656 0.26557,2.03087 0.26561,3.120974 l 0,14.498145 c -4e-5,0.316491 0.0897,0.585852 0.2656,0.796841 0.21107,0.211006 0.57013,0.309886 1.06247,0.309886 l 0.53124,0 0.30987,0 0.3099,0 c 0.1052,-0.0352 0.27591,-0.04435 0.48695,-0.04435 -0.0351,0.175836 -0.0662,0.404857 -0.0662,0.686175 0,0.246156 -0.008,0.515514 -0.0444,0.796841 -0.0353,0.316485 -0.0444,0.635305 -0.0444,0.951785 l -6.2862,0 0,-5.223756 c -0.49233,1.090141 -1.14815,2.064765 -1.9921,2.943895 -0.70334,0.738486 -1.65065,1.416439 -2.81111,2.014249 -1.16049,0.597802 -2.58404,0.885377 -4.27197,0.885377 -1.1253,0 -2.23918,-0.179551 -3.36444,-0.531227 -1.09013,-0.316484 -2.08691,-0.79274 -2.96604,-1.460885 -0.87915,-0.668144 -1.57528,-1.494426 -2.10278,-2.479069 -0.52746,-1.019798 -0.79684,-2.205234 -0.79684,-3.541529 0,-1.512105 0.30967,-2.796449 0.90749,-3.85142 0.59782,-1.054946 1.37466,-1.930698 2.32416,-2.634012 0.98462,-0.738456 2.08939,-1.295392 3.32019,-1.682222 1.23077,-0.42197 2.44352,-0.740774 3.67435,-0.951784 1.23076,-0.246158 2.41621,-0.385278 3.54148,-0.42056 1.12531,-0.07022 2.08175,-0.110645 2.85538,-0.110686 l 1.52728,0 c -2e-5,-2.320906 -0.22904,-4.022933 -0.68615,-5.113084 -0.45719,-1.090102 -1.19369,-1.907293 -2.21346,-2.4348 -1.30113,-0.492283 -2.52694,-0.712272 -3.65223,-0.641904 -1.09014,0.0352 -2.05565,0.214779 -2.89961,0.53123 -0.80882,0.316519 -1.45554,0.716014 -1.94785,1.173126 -0.49232,0.422021 -0.77081,0.759036 -0.8411,1.040328 -0.0705,0.316519 0.0101,0.715992 0.22133,1.173131 0.24617,0.421997 0.4843,0.749919 0.73047,0.996057 -0.17567,0.07034 -0.36454,0.160137 -0.57551,0.265616 -0.21105,0.07034 -0.39968,0.160136 -0.57549,0.26561 -0.21108,0.140681 -0.44002,0.270818 -0.68621,0.376289 l -1.79287,-3.120964 c -2e-5,-0.843949 0.19796,-1.611701 0.61977,-2.279861 0.42196,-0.703287 0.97892,-1.300563 1.68223,-1.792914 0.80878,-0.597784 1.75609,-1.055819 2.81108,-1.372338 1.09014,-0.316467 2.14541,-0.464791 3.16522,-0.464838 z m -46.57118,-8.1e-5 c 1.89892,4.7e-5 3.58276,0.359182 5.02455,1.062467 1.47693,0.668182 2.71182,1.593357 3.69645,2.788963 0.98464,1.160487 1.72115,2.5255 2.21346,4.072763 0.49232,1.547297 0.73043,3.168637 0.73045,4.891734 0,0.175857 -0.009,0.364512 -0.0444,0.575502 -2e-5,0.211005 -2e-5,0.421808 0,0.597634 -0.0351,0.211006 -0.0663,0.440026 -0.0663,0.686179 l -21.29348,0 c 0,1.898941 0.27846,3.55152 0.84112,4.958136 0.59778,1.371459 1.38375,2.494429 2.3684,3.40872 0.98462,0.879138 2.12972,1.557094 3.43086,2.014251 1.3011,0.421985 2.67523,0.641903 4.11702,0.641903 0.94948,0 1.82518,-0.121026 2.63401,-0.332025 0.8088,-0.210982 1.54531,-0.449108 2.21347,-0.730442 0.70329,-0.351642 1.16134,-0.710787 1.37234,-1.06245 0.21105,-0.386818 0.12106,-0.844854 -0.26561,-1.372344 -0.10565,-0.140642 -0.20443,-0.248651 -0.30989,-0.354157 -0.0703,-0.140641 -0.20951,-0.360571 -0.42058,-0.6419 0.17578,-0.07034 0.35541,-0.160116 0.53127,-0.265616 0.21104,-0.105486 0.39963,-0.204392 0.57549,-0.309881 0.21083,-0.14064 0.43999,-0.270797 0.68617,-0.37629 l 3.09883,4.847466 c -0.24618,0.211005 -0.52464,0.440024 -0.84111,0.686175 -0.28135,0.211005 -0.60016,0.440024 -0.9518,0.686171 -0.3165,0.246155 -0.65352,0.466073 -1.04031,0.641907 -0.91433,0.492314 -2.00086,0.941248 -3.23165,1.328073 -1.23082,0.421989 -2.62313,0.619765 -4.20558,0.619765 -2.07476,0 -3.99671,-0.359155 -5.75497,-1.062458 -1.75829,-0.703314 -3.28074,-1.677936 -4.58186,-2.943897 -1.30112,-1.301121 -2.33823,-2.823577 -3.07671,-4.581862 -0.73847,-1.793429 -1.10673,-3.764826 -1.10673,-5.909924 0,-2.25059 0.35916,-4.271411 1.06247,-6.064881 0.73848,-1.828577 1.7131,-3.373172 2.9439,-4.603986 1.26594,-1.265928 2.72985,-2.231461 4.38263,-2.899631 1.65279,-0.668113 3.40425,-0.996018 5.26803,-0.996065 z m -30.72293,6.1e-5 c 1.89894,3.4e-5 3.45263,0.26939 4.64827,0.796845 1.23078,0.492341 2.19631,1.040172 2.89963,1.637952 0.84395,0.703343 1.48156,1.489293 1.90358,2.368405 l 0,-4.161295 6.37475,0 c 0.0351,0.316519 0.0662,0.635316 0.0664,0.951795 -1e-5,0.281343 -1e-5,0.559807 0,0.841095 0,0.281357 0.009,0.510378 0.0444,0.686183 -0.211,-0.0351 -0.35936,-0.06632 -0.46483,-0.06638 -0.10554,-0.0352 -0.19525,-0.04427 -0.26562,-0.04433 -0.0704,2.2e-5 -0.19137,2.2e-5 -0.33201,0 -0.10554,2.2e-5 -0.26297,2.2e-5 -0.50909,0 -0.49234,2.2e-5 -0.8515,0.13014 -1.06246,0.376287 -0.21103,0.211005 -0.3099,0.449154 -0.30988,0.730446 l 0,23.949609 c -2e-5,2.215423 -0.39952,4.097022 -1.17315,5.64431 -0.73848,1.582441 -1.74435,2.866769 -3.01028,3.851407 -1.23081,0.984627 -2.65439,1.689902 -4.27197,2.147066 -1.61765,0.457133 -3.27933,0.686151 -5.00243,0.686165 -1.61763,-1.4e-5 -3.22076,-0.188686 -4.8032,-0.575502 -1.54728,-0.386827 -3.01119,-0.934657 -4.38265,-1.637956 l 2.39055,-5.998465 0.73043,0.199206 0.61976,0.221348 c 0.211,0.07033 0.42182,0.11966 0.59763,0.154936 -0.17583,0.386809 -0.30589,0.656183 -0.37626,0.796845 l -0.15494,0.309881 c -0.2813,0.597804 -0.31253,1.10529 -0.0664,1.527281 0.28132,0.457147 0.77968,0.816293 1.48302,1.062464 0.56264,0.140641 1.1599,0.248659 1.79289,0.354152 0.66815,0.105526 1.3552,0.177061 2.05852,0.177061 1.37145,-8e-6 2.64667,-0.17957 3.80713,-0.531231 1.19563,-0.316498 2.2197,-0.823981 3.09885,-1.527286 0.91429,-0.703311 1.63259,-1.619395 2.12492,-2.744681 0.52747,-1.125304 0.7747,-2.45908 0.77471,-4.006361 l 0,-4.493318 c -0.42201,0.914314 -1.02839,1.731501 -1.83717,2.434805 -0.70332,0.597824 -1.6194,1.154742 -2.74469,1.682224 -1.12531,0.492333 -2.54886,0.730443 -4.27196,0.730443 -1.89896,0 -3.6101,-0.337016 -5.15736,-1.040325 -1.51213,-0.703319 -2.8277,-1.700066 -3.91782,-2.966028 -1.09013,-1.301119 -1.92554,-2.823571 -2.52334,-4.581861 -0.59781,-1.758273 -0.90752,-3.689317 -0.90752,-5.799258 0,-2.109911 0.27847,-4.031855 0.84112,-5.754987 0.56264,-1.723093 1.37983,-3.196102 2.43479,-4.426923 1.05497,-1.265931 2.3302,-2.231448 3.80715,-2.899628 1.5121,-0.703285 3.18289,-1.062422 5.04668,-1.062467 z m -29.59384,-6.1e-5 c 2.03959,4.7e-5 3.95244,0.368287 5.71073,1.106735 1.79341,0.703349 3.32498,1.709204 4.62612,3.010312 1.33627,1.301141 2.39158,2.823598 3.16524,4.581859 0.77362,1.758289 1.17311,3.671126 1.17313,5.710719 -2e-5,2.109937 -0.39951,4.050088 -1.17313,5.843522 -0.77366,1.758277 -1.82897,3.311972 -3.16524,4.648264 -1.30114,1.30112 -2.83271,2.31609 -4.62612,3.054562 -1.75829,0.738477 -3.6399,1.106731 -5.64432,1.106731 -2.03961,0 -3.96155,-0.368254 -5.75499,-1.106731 -1.75828,-0.738472 -3.31197,-1.753442 -4.64826,-3.054562 -1.30113,-1.336292 -2.3252,-2.889987 -3.09883,-4.648264 -0.77366,-1.793434 -1.17314,-3.733585 -1.17314,-5.843522 0,-2.039593 0.39948,-3.95243 1.17314,-5.710719 0.77363,-1.758261 1.7977,-3.280718 3.09883,-4.581859 1.33629,-1.301108 2.88998,-2.306963 4.64826,-3.010312 1.79344,-0.738448 3.68414,-1.106688 5.68858,-1.106735 z m 88.22844,-10.226216 6.55184,0 -7.76926,50.754567 -3.74077,0 7.21592,-47.235173 c 0.0484,-0.316453 9.9e-4,-0.563677 -0.17729,-0.774711 -0.17326,-0.246123 -0.52586,-0.376253 -1.01819,-0.376282 -0.24616,2.9e-5 -0.43486,2.9e-5 -0.5755,0 -0.10581,2.9e-5 -0.19535,2.9e-5 -0.2656,0 -0.0705,8.7e-5 -0.15479,0.0091 -0.26562,0.04435 -0.1058,0 -0.2706,0.0312 -0.48695,0.06638 0.0269,-0.175797 0.0676,-0.404814 0.11062,-0.686182 0.0781,-0.281277 0.16544,-0.559745 0.24348,-0.841105 0.0835,-0.31644 0.12849,-0.635259 0.17708,-0.951786 z m -14.49816,0 6.52969,0 0,38.669096 -3.74075,0 0,-35.149702 c 0,-0.316453 -0.0991,-0.563677 -0.30987,-0.774711 -0.21105,-0.246123 -0.57016,-0.376253 -1.06246,-0.376282 -0.24618,2.9e-5 -0.43484,2.9e-5 -0.5755,0 -0.10564,2.9e-5 -0.19517,2.9e-5 -0.26563,0 -0.0703,8.7e-5 -0.16012,0.0091 -0.26561,0.04435 -0.10543,0 -0.25381,0.0312 -0.46482,0.06638 l 0,-0.686182 c 0.0351,-0.281277 0.0534,-0.559745 0.0884,-0.841105 0.0353,-0.31644 0.0664,-0.635259 0.0664,-0.951786 z" />
  <g
     style="fill:#f88017;fill-opacity:1"
     id="g3051"
     transform="matrix(2.1637522,0,0,2.4584692,0.11311686,0.97103535)">
    <path
       inkscape:connector-curvature="0"
       style="fill:#f88017;fill-opacity:1;stroke:none"
       id="path4005-1"
       d="m 15.586297,0.00133333 c 0.137192,-0.003 0.275658,0 0.413711,0 C 24.834343,0.00133333 32,6.3662633 32,14.223833 c 0,6.13871 -4.372629,11.3702 -10.49896,13.36428 l 1.067766,-5.66022 c 0.317473,-0.14663 0.584487,-0.32272 0.900073,-0.49111 0.231525,-0.13821 0.456623,-0.2799 0.676453,-0.43159 0.219837,-0.15169 0.429915,-0.31171 0.63732,-0.47624 0.207393,-0.16451 0.409549,-0.33427 0.603771,-0.51095 0.194203,-0.17668 0.384355,-0.36247 0.564628,-0.55064 0.180295,-0.18818 0.354311,-0.3814 0.519927,-0.58041 0.165616,-0.19901 0.319413,-0.40099 0.469606,-0.61017 0.150196,-0.2092 0.296435,-0.42621 0.430465,-0.6449 0.134026,-0.2187 0.257449,-0.44216 0.374565,-0.66971 0.117114,-0.22755 0.224788,-0.45877 0.324246,-0.6945 0.09946,-0.23573 0.192873,-0.47606 0.273929,-0.71932 0.08107,-0.24325 0.150521,-0.48903 0.212448,-0.73914 0.06191,-0.25013 0.114503,-0.50269 0.15654,-0.759 0.04202,-0.25632 0.07365,-0.51699 0.09504,-0.77884 0.02139,-0.26185 0.03353,-0.52204 0.03353,-0.78877 0,-5.9571797 -5.428055,-10.7946097 -12.125791,-10.7946097 -6.697716,0 -12.1313676,4.83743 -12.1313676,10.7946097 0,3.71665 2.1170569,6.9856 5.3333244,8.92442 1.4045562,0.88504 4.4144762,-5.54068 3.9077652,-5.68008 l -0.497553,0.15875 c 0.0452,-0.92557 -0.145309,-1.179 0.452813,-1.45847 0,0 -4.0996849,1.90429 -4.539472,1.23028 -0.3055672,-0.46831 3.902175,-3.4775 3.902175,-3.4775 0,0 -0.43892,-3.0544897 -3.3543029,-4.3555497 -0.025472,-0.36585 1.1183449,-0.35176 1.5317969,-0.34229 3.099464,0.0711 5.847652,2.41589 5.847652,2.41589 0,0 5.068235,-2.22577 5.640816,-1.72138 0.569725,0.50188 -3.969244,3.7354497 -3.969244,3.7354497 0.37827,0.3364 0.903239,0.79342 1.341708,1.15089 l -0.65967,0.47624 c 0.204774,0.4772 0.477871,0.68047 0.771479,1.21042 0.09248,0.1669 -0.471683,0.63181 -0.760303,0.83341 1.278224,0.12925 1.607682,-1.13304 2.057295,-1.57752 0.235359,-0.31027 0.620613,0.0306 0.676454,-0.38694 0.09491,-0.70956 0.05185,-1.05722 -0.07266,-1.23523 l 0.729328,0.09315 0.746561,0.09536 c -0.16485,0.12236 -0.404081,0.85916 -0.436057,1.26995 0.3895,0.0607 0.115119,0.0351 0.245978,0.0744 0.275665,0.0716 0.478325,0.19828 0.251573,0.49608 -0.294699,0.38702 -0.10514,1.18681 -0.486377,1.18561 l -0.273945,0.01 -0.832976,6.29025 -0.0055,0.0348 -0.916841,5.74457 c -0.0055,0.002 -0.01127,0.003 -0.0168,0.005 l -0.240379,1.61225 -0.430485,2.70361 c -0.464701,0.0259 -0.827044,-0.23781 -0.793832,-0.88302 l 0.692521,-5.04653 c 0.130383,-0.81803 0.20749,-1.39837 0.03217,-1.92043 0.144682,1.8206 -1.502751,3.77252 -2.379502,4.23359 -2.178599,0.85304 -9.4185227,0.78987 -14.1327806,-3.41797 0.8358541,-0.37072 3.1568211,-0.93145 4.3494126,-1.87516 -1.1585628,0.64444 -3.0643446,1.11678 -3.9301233,0.88797 C 1.6647967,21.430223 0,18.001723 0,14.223863 0,6.4890733 6.9428021,0.19606333 15.586312,0.00136333 z" />
    <path
       inkscape:connector-curvature="0"
       style="fill:#f88017;fill-opacity:1;fill-rule:nonzero;stroke:none"
       id="path2995"
       transform="matrix(0.85294123,0,0,0.38235296,1.7509106,8.419738)"
       d="m 26.41305,10.26018 a 1.7270072,1.7270072 0 1 1 -3.454014,0 1.7270072,1.7270072 0 1 1 3.454014,0 z" />
  </g>
</svg>
